<?xml version="1.0" encoding="UTF-8"?>
<svg id="Layer_2" data-name="Layer 2" xmlns="http://www.w3.org/2000/svg" viewBox="0 0 153.19 153.23">
  <defs>
    <style>
      .cls-1 {
        fill: #00916e;
      }

      .cls-2 {
        fill: #ffd447;
      }

      .cls-3 {
        fill: #10143b;
      }

      .cls-4 {
        fill: #4abb87;
      }
    </style>
  </defs>
  <g id="Layer_1-2" data-name="Layer 1">
    <g>
      <path class="cls-3" d="M152.8,60.07c-.29-4.82-.96-9.62-1.68-14.4-.86-5.71-2.33-11.27-4.78-16.54-4.36-9.38-11.17-16.37-20.33-21.14-8.45-4.39-17.55-6.37-26.96-7.02-6.52-.45-13.06-.74-19.59-.89-10.58-.25-21.14,.04-31.62,1.74-6.12,.99-12.14,2.35-17.85,4.87-5.06,2.23-9.65,5.17-13.61,9.03-5.83,5.67-9.59,12.56-11.81,20.32-1.54,5.37-2.27,10.9-3,16.41-.83,6.26-1.32,12.56-1.48,18.87-.2,7.87-.06,15.74,.77,23.56,.57,5.34,1.39,10.65,2.17,15.97,.84,5.76,2.7,11.19,5.56,16.27,3.59,6.38,8.42,11.64,14.44,15.8,5.7,3.94,12.02,6.37,18.81,7.65,6.39,1.2,12.83,1.9,19.32,2.15,5.47,.21,10.95,.31,18.55,.51,4.42-.18,10.96-.37,17.49-.74,6.83-.38,13.56-1.45,20.12-3.5,6.15-1.92,11.84-4.68,16.83-8.83,6.36-5.29,10.95-11.82,13.73-19.6,2.69-7.53,4.3-15.3,4.68-23.3,.31-6.5,.58-13.01,.64-19.52,.05-5.9-.02-11.8-.38-17.69Z"/>
      <g id="VZEMd4">
        <g>
          <path class="cls-1" d="M112.13,56.27c.08,1.8,.08,3.59,0,5.39-.08,.45-.15,.9-.23,1.36-.19,.49-.53,.96-.23,1.53-.02,.19-.04,.37-.07,.56-.21,.21-.16,.48-.17,.73,0,.4-.02,.8-.24,1.16l-.03,.09c0,.33-.03,.65-.23,.94l-.03,.1c0,.23-.03,.44-.16,.63-.05,.06-.08,.14-.08,.22,0,.32-.07,.62-.26,.89l-.02,.04c-.04,.13-.08,.26-.11,.4-.05,.13-.11,.27-.16,.4-.04,.13-.08,.25-.12,.38-.04,.08-.08,.15-.11,.23,0,.21-.06,.41-.2,.58-.03,.05-.05,.1-.07,.15-.05,.44-.23,.82-.49,1.17l-.04,.08c-.06,.14-.12,.27-.18,.41-.04,.05-.06,.1-.08,.16-.05,.11-.1,.23-.15,.34-.05,.05-.09,.12-.11,.19-.03,.33-.2,.6-.41,.84-.05,.05-.09,.11-.11,.18l-.18,.35s-.06,.09-.08,.14c-.07,.13-.14,.27-.22,.4l-.04,.07c-.14,.46-.38,.87-.72,1.21l-.06,.1c-.06,.27-.22,.48-.42,.66-.04,.04-.08,.09-.1,.14-.06,.26-.22,.47-.43,.64-.04,.04-.07,.09-.1,.14,0,0-.04,.07-.04,.07-.07,.09-.13,.18-.2,.26-.06,.23-.21,.4-.39,.55-.06,.05-.11,.1-.14,.18-.14,.36-.39,.63-.68,.88-.04,.04-.07,.08-.1,.12v.07s-.07,.02-.07,.02l-.19,.22-.03,.04-.22,.25c-.17,.35-.43,.62-.73,.85l-.04,.04c-.02,.08-.07,.14-.15,.16-.04,.05-.08,.09-.12,.13,0,.07-.04,.11-.12,.12-.05,.05-.1,.1-.15,.15,0,.07-.04,.1-.11,.11-.06,.05-.11,.1-.15,.16,0,.07-.03,.1-.1,.1-.06,.05-.11,.1-.16,.16,0,.07-.03,.1-.1,.1-.06,.05-.11,.1-.16,.16,0,.07-.03,.1-.1,.1-.06,.05-.11,.1-.16,.16,0,.07-.04,.1-.1,.1-.05,.05-.11,.1-.15,.15,0,.07-.05,.11-.12,.11-.04,.05-.09,.09-.14,.13-.01,.08-.06,.12-.14,.13l-.07,.06c-.32,.38-.67,.75-1.12,.97-.08,.07-.16,.14-.24,.2l-.06,.05c-.06,.03-.11,.08-.16,.13-.24,.27-.49,.53-.84,.66-.08,.06-.16,.13-.24,.19l-.03,.06h-.06s-.07,.06-.11,.09c-.92,.79-1.92,1.47-3.01,2l-.09,.05c-1.25,.83-2.57,1.54-4,2.03-.06,.01-.11,.04-.16,.06-.34,.25-.72,.38-1.13,.46-.06,.01-.11,.03-.17,.06-.16,.15-.36,.21-.58,.21-.08,0-.15,.03-.22,.08-.16,.14-.35,.19-.55,.18-.09,0-.16,.03-.23,.09-.21,.18-.46,.22-.73,.2l-.34,.15c-.16,.03-.32,.07-.48,.1l-.28,.1c-.66,.21-1.31,.48-2.02,.43-.11,.04-.22,.08-.32,.12-.39,.17-.79,.2-1.2,.15-.12,.04-.24,.08-.36,.12-1.45,.29-2.91,.43-4.38,.4-.6-.01-.89,.19-.84,.82,.03,.3,0,.6,0,.91,0,5.53,.05,11.07-.04,16.6-.07,4.51-1.8,8.4-4.9,11.68-2.94,3.1-6.6,4.8-10.78,5.44-4.85,.37-9.33-.68-13.12-3.81-5.8-4.8-8.03-11.04-6.17-18.32,1.85-7.22,6.72-11.58,14.06-13.13,1.11-.24,2.23-.27,3.36-.27,4.07-.01,8.14,0,12.2,0,1.42,.15,2.84,.08,4.25-.16,1.08-.18,1.09-.15,1.1-1.23,0-.3,0-.6,0-.91,0-22.34,0-44.68,0-67.01,0-.56-.01-1.12-.02-1.68,.33-.02,.67-.04,1-.06,1.44,.26,2.91,.18,4.37,.43,9.63,1.62,17.44,6.22,23.26,14.11,.05,.07,.11,.14,.16,.22,.07,.02,.1,.07,.1,.14l.03,.04c.22,.19,.39,.42,.49,.71l.07,.1c.22,.19,.37,.41,.45,.68l.05,.08c1.03,1.49,1.95,3.04,2.55,4.76,.01,.08,.05,.14,.1,.2,.05,.13,.1,.26,.15,.39l.04,.09c.28,.4,.47,.83,.51,1.33l.14,.29c.03,.11,.06,.21,.09,.32,0,.17,.02,.34,.17,.46l.09,.33s.03,.1,.05,.14c.19,.24,.23,.52,.23,.81,.04,.09,.08,.18,.12,.27,.04,.19,.08,.37,.13,.56,0,.18,.01,.35,.15,.48l.11,.56c0,.17,0,.34,.13,.47,.12,.25,.15,.52,.13,.8-.01,.18,0,.36,.13,.5,.13,.34,.16,.69,.14,1.04,0,.36-.12,.74,.17,1.05,.08,.54,.16,1.07,.25,1.61Z"/>
          <path class="cls-4" d="M76.58,23.37c0,.56,.02,1.12,.02,1.68,0,22.34,0,44.68,0,67.01,0,.3,0,.6,0,.91-.01,1.08-.02,1.06-1.1,1.23-1.41,.23-2.83,.31-4.25,.16-.25-.45-.71-.41-1.13-.5-6.65-1.3-12.53-4.15-17.52-8.76-6.03-5.56-9.77-12.38-11.07-20.48-1.52-9.45,.42-18.18,5.89-26.01,5.81-8.31,13.82-13.27,23.87-14.86,1.75-.28,3.51-.47,5.29-.39Z"/>
          <path class="cls-2" d="M94.72,89.46c1.09-.53,2.09-1.21,3.01-2,0,0,.08,0,.08,0l.03-.09h.06s.03-.06,.03-.06c.13,0,.21-.07,.24-.19,.35-.13,.6-.38,.84-.65,.1,0,.15-.03,.16-.13,0,0,.06-.05,.06-.05,.13,0,.21-.08,.24-.2,.46-.23,.8-.59,1.12-.97,0,0,.06,0,.06,0v-.07c.08,0,.13-.05,.14-.13,.09,0,.14-.04,.14-.13,.07,0,.11-.04,.12-.11,.1,0,.15-.05,.15-.15,.07,0,.1-.04,.1-.1,.11,0,.16-.05,.16-.16,.07,0,.1-.03,.1-.1,.11,0,.16-.05,.16-.16,.07,0,.1-.03,.1-.1,.11,0,.16-.05,.16-.16,.07,0,.1-.04,.1-.1,.1,0,.15-.05,.15-.16,.07,0,.1-.04,.11-.11,.1,0,.15-.05,.15-.15,.07-.01,.11-.05,.12-.12,0,0,.1-.03,.1-.03l.02-.1c.08-.02,.13-.07,.15-.16,0,0,.06,0,.06,0l-.02-.05c.3-.23,.57-.5,.73-.85,.14-.03,.21-.12,.22-.25,0,0,.03-.04,.03-.04,.12-.02,.19-.09,.19-.22l.06-.02s0-.07,0-.07,.09-.03,.09-.03v-.09c.3-.24,.55-.51,.69-.88,.1-.01,.16-.07,.14-.18,.18-.15,.33-.32,.39-.55,.13-.04,.2-.12,.2-.26,0,0,.04-.07,.04-.07,0,0,.09-.04,.09-.04v-.1c.21-.17,.36-.38,.43-.64,0,0,.1-.04,.1-.04v-.1c.21-.18,.36-.39,.42-.66,0,0,.08-.02,.08-.02l-.02-.07c.34-.35,.57-.75,.72-1.21,0,0,.07-.02,.07-.02l-.03-.05c.07-.13,.14-.27,.22-.4,0,0,.09-.05,.09-.05v-.1c.05-.12,.11-.23,.17-.35,.1-.03,.14-.09,.11-.18,.22-.24,.38-.51,.41-.84,.09-.03,.15-.08,.11-.19,.05-.11,.1-.23,.15-.34,0,0,.09-.06,.09-.06v-.1c.05-.14,.11-.27,.16-.41,0,0,.07-.03,.07-.03l-.03-.05c.25-.35,.44-.73,.49-1.17,0,0,.09-.06,.09-.06l-.02-.1c.14-.17,.2-.36,.2-.58,.1-.05,.16-.11,.11-.23,.04-.13,.08-.25,.12-.38,.15-.09,.21-.22,.16-.4,.04-.13,.08-.26,.11-.4,0,0,.06-.02,.06-.02l-.04-.02c.19-.27,.26-.57,.26-.89,.09-.05,.15-.11,.08-.22,.13-.19,.17-.4,.16-.63,0,0,.07-.04,.07-.04l-.04-.06c.2-.28,.23-.6,.23-.94,0,0,.07-.04,.07-.04l-.04-.05c.22-.36,.25-.75,.24-1.16,.19-.21,.24-.46,.17-.73,.02-.19,.04-.37,.07-.56,.29-.48,.28-1,.23-1.53,.08-.45,.15-.91,.23-1.36,.02,.78,.07,1.56,.07,2.33,0,10.08-.02,20.16,0,30.24,.05,16.63-11.43,31.21-27.99,34.9-2.28,.51-4.61,.8-6.94,.82-5.24,.05-10.47,.02-15.71,.01-.21,0-.43-.04-.64-.06,4.19-.65,7.84-2.34,10.78-5.44,3.1-3.27,4.83-7.16,4.9-11.68,.09-5.53,.03-11.07,.04-16.6,0-.3,.02-.61,0-.91-.06-.63,.24-.83,.84-.82,1.47,.03,2.93-.11,4.38-.4,.15,.04,.26,0,.36-.12,.41,.05,.82,.02,1.2-.15,.14,.04,.24,0,.32-.12,.72,.05,1.36-.22,2.02-.43,.12,.05,.21,0,.28-.1,.16-.03,.32-.07,.48-.1,.14,.02,.25-.03,.34-.15,.27,.02,.52-.02,.73-.2,.11,.05,.18,0,.23-.09,.21,0,.39-.04,.55-.18,.1,.06,.17,0,.22-.08,.22,0,.41-.06,.58-.21,0,0,.1,.02,.1,.02l.07-.08c.41-.07,.79-.21,1.13-.46,0,0,.1,.02,.1,.02l.06-.08c1.43-.48,2.75-1.19,4-2.03,0,0,.07,.02,.07,.02l.02-.08Z"/>
          <path class="cls-2" d="M105.98,38.95c-.09-.28-.26-.51-.48-.71,0,0,.03-.04,.03-.04h-.06c0-.07-.03-.12-.1-.14,0-.12-.05-.19-.16-.22-5.82-7.89-13.63-12.49-23.26-14.11-1.45-.24-2.92-.17-4.37-.43,1.6-.02,3.2-.05,4.8-.05,9.42,0,18.84,0,28.26,0,.3,0,.61,0,.91,0,.42,0,.65,.17,.64,.61,0,.17,0,.35,0,.52,0,10.45-.01,20.91-.02,31.36,0,.17-.03,.34-.04,.51-.08-.54-.16-1.08-.25-1.61,.07-.37,.06-.73-.17-1.05,.03-.36,0-.71-.14-1.04,.07-.2,.02-.36-.13-.5,.02-.28-.01-.55-.13-.8,.06-.19,0-.34-.13-.47-.04-.19-.07-.37-.11-.56,.06-.19,0-.35-.15-.48-.04-.19-.08-.37-.13-.56,.05-.13,0-.21-.12-.27,0-.29-.04-.57-.23-.81,0,0,.03-.09,.03-.09l-.08-.06c-.03-.11-.06-.22-.09-.33,.04-.19-.02-.34-.18-.46-.03-.11-.06-.21-.09-.32,.03-.14-.02-.23-.14-.29-.03-.5-.23-.93-.51-1.33,0,0,.03-.06,.03-.06l-.07-.03c-.05-.13-.1-.26-.15-.39,.05-.11,0-.16-.1-.2-.6-1.72-1.52-3.27-2.55-4.76,0,0,.02-.07,.02-.07l-.08-.02c-.08-.28-.23-.5-.45-.68,0,0,.01-.08,.01-.08l-.08-.02Z"/>
          <path class="cls-1" d="M111.9,63.01c.06,.53,.06,1.05-.23,1.53-.31-.57,.04-1.04,.23-1.53Z"/>
          <path class="cls-1" d="M111.72,53.61c.24,.32,.24,.68,.17,1.05-.29-.31-.16-.69-.17-1.05Z"/>
          <path class="cls-1" d="M111.61,65.09c.07,.27,.03,.52-.17,.73,0-.26-.04-.53,.17-.73Z"/>
          <path class="cls-1" d="M110.28,70.29c.05,.18,0,.31-.16,.4,.05-.13,.11-.27,.16-.4Z"/>
          <path class="cls-1" d="M110.13,47.19c.15,.12,.22,.27,.18,.46-.15-.12-.17-.29-.18-.46Z"/>
          <path class="cls-1" d="M111.45,52.07c.15,.14,.2,.3,.13,.5-.13-.14-.14-.32-.13-.5Z"/>
          <path class="cls-1" d="M110.92,49.76c.15,.13,.21,.29,.15,.48-.14-.13-.16-.3-.15-.48Z"/>
          <path class="cls-1" d="M111.18,50.8c.14,.13,.2,.28,.13,.47-.13-.13-.14-.3-.13-.47Z"/>
          <path class="cls-1" d="M110.68,48.93c.11,.06,.16,.15,.12,.27-.04-.09-.08-.18-.12-.27Z"/>
          <path class="cls-1" d="M110.4,47.98l.08,.06s-.03,.09-.03,.09c-.02-.05-.04-.09-.05-.14Z"/>
          <path class="cls-1" d="M109.9,46.58c.12,.06,.17,.15,.14,.29-.05-.1-.09-.19-.14-.29Z"/>
          <polygon class="cls-1" points="109.35 45.16 109.43 45.19 109.4 45.25 109.35 45.16"/>
          <path class="cls-1" d="M109.1,44.58c.09,.04,.15,.09,.1,.2-.05-.06-.09-.12-.1-.2Z"/>
          <polygon class="cls-1" points="106.5 39.73 106.58 39.75 106.56 39.82 106.5 39.73"/>
          <polygon class="cls-1" points="105.98 38.95 106.06 38.97 106.05 39.05 105.98 38.95"/>
          <polygon class="cls-1" points="111.2 66.99 111.24 67.04 111.17 67.08 111.2 66.99"/>
          <polygon class="cls-1" points="110.94 68.02 110.98 68.08 110.91 68.12 110.94 68.02"/>
          <path class="cls-1" d="M110.75,68.75c.07,.11,0,.17-.08,.22,0-.08,.03-.15,.08-.22Z"/>
          <polygon class="cls-1" points="110.41 69.86 110.45 69.87 110.39 69.9 110.41 69.86"/>
          <polygon class="cls-1" points="105.47 38.21 105.53 38.21 105.5 38.24 105.47 38.21"/>
          <path class="cls-1" d="M110,71.07c.05,.12-.01,.18-.11,.23,.04-.08,.08-.15,.11-.23Z"/>
          <path class="cls-1" d="M109.68,71.88l.02,.1s-.09,.06-.09,.06c.02-.05,.04-.11,.07-.15Z"/>
          <path class="cls-1" d="M105.2,37.85c.11,.03,.17,.1,.16,.22-.05-.07-.11-.14-.16-.22Z"/>
          <polygon class="cls-1" points="109.13 73.2 109.17 73.26 109.09 73.28 109.13 73.2"/>
          <path class="cls-1" d="M108.92,73.69v.1s-.08,.06-.08,.06c.02-.06,.04-.11,.08-.16Z"/>
          <path class="cls-1" d="M108.69,74.19c.04,.11-.01,.16-.11,.19,.02-.08,.05-.14,.11-.19Z"/>
          <path class="cls-1" d="M108.17,75.23c.03,.1,0,.16-.11,.18,.02-.07,.06-.13,.11-.18Z"/>
          <path class="cls-1" d="M107.88,75.76v.1s-.08,.05-.08,.05c.02-.05,.05-.1,.08-.14Z"/>
          <polygon class="cls-1" points="107.58 76.31 107.61 76.36 107.54 76.38 107.58 76.31"/>
          <polygon class="cls-1" points="106.82 77.59 106.84 77.66 106.76 77.69 106.82 77.59"/>
          <path class="cls-1" d="M106.34,78.35v.1s-.1,.04-.1,.04c.03-.05,.06-.1,.1-.14Z"/>
          <path class="cls-1" d="M105.81,79.13v.1s-.1,.04-.1,.04c.03-.05,.06-.1,.1-.14Z"/>
          <path class="cls-1" d="M105.67,79.34c0,.14-.07,.22-.2,.26,.07-.09,.13-.18,.2-.26Z"/>
          <path class="cls-1" d="M105.08,80.15c.02,.11-.04,.16-.14,.18,.03-.07,.08-.13,.14-.18Z"/>
          <path class="cls-1" d="M104.26,81.2v.09s-.1,.03-.1,.03c.03-.04,.06-.08,.1-.12Z"/>
          <path class="cls-1" d="M104.09,81.41c0,.13-.07,.2-.19,.22,.06-.07,.13-.15,.19-.22Z"/>
          <path class="cls-1" d="M103.86,81.68c0,.14-.08,.22-.22,.25,.07-.09,.14-.17,.22-.25Z"/>
          <polygon class="cls-1" points="102.92 82.78 102.94 82.83 102.87 82.83 102.92 82.78"/>
          <path class="cls-1" d="M102.73,82.98l-.02,.1s-.1,.03-.1,.03c.04-.04,.08-.08,.12-.13Z"/>
          <path class="cls-1" d="M102.49,83.24c0,.1-.05,.15-.15,.15,.05-.05,.1-.1,.15-.15Z"/>
          <path class="cls-1" d="M102.24,83.49c0,.1-.05,.15-.15,.16,.05-.06,.1-.11,.15-.16Z"/>
          <path class="cls-1" d="M101.98,83.75c0,.11-.05,.16-.16,.16,.05-.06,.1-.11,.16-.16Z"/>
          <path class="cls-1" d="M101.72,84.01c0,.11-.05,.16-.16,.16,.05-.06,.1-.11,.16-.16Z"/>
          <path class="cls-1" d="M101.46,84.27c0,.11-.05,.16-.16,.16,.05-.06,.1-.11,.16-.16Z"/>
          <path class="cls-1" d="M101.2,84.53c0,.1-.05,.15-.15,.15,.05-.05,.1-.1,.15-.15Z"/>
          <path class="cls-1" d="M100.92,84.79c0,.09-.04,.14-.14,.13,.05-.04,.09-.09,.14-.13Z"/>
          <polygon class="cls-1" points="100.65 85.06 100.65 85.13 100.58 85.12 100.65 85.06"/>
          <path class="cls-1" d="M99.46,86.09c-.03,.13-.1,.2-.24,.2,.08-.07,.16-.14,.24-.2Z"/>
          <path class="cls-1" d="M99.16,86.35c0,.1-.06,.14-.16,.13,.04-.06,.09-.1,.16-.13Z"/>
          <path class="cls-1" d="M98.16,87.13c-.03,.12-.11,.19-.24,.19,.08-.06,.16-.13,.24-.19Z"/>
          <path class="cls-1" d="M97.83,87.38l-.03,.09s-.08,0-.08,0c.04-.03,.07-.05,.11-.08Z"/>
          <polygon class="cls-1" points="94.72 89.46 94.69 89.54 94.62 89.52 94.72 89.46"/>
          <path class="cls-1" d="M90.62,91.54l-.06,.08s-.1-.02-.1-.02c.05-.03,.1-.05,.16-.06Z"/>
          <path class="cls-1" d="M89.33,92.07l-.07,.08s-.1-.02-.1-.02c.05-.03,.11-.05,.17-.06Z"/>
          <path class="cls-1" d="M88.59,92.33c-.05,.09-.11,.14-.22,.08,.06-.05,.14-.08,.22-.08Z"/>
          <path class="cls-1" d="M87.82,92.6c-.05,.09-.12,.14-.23,.09,.07-.05,.14-.08,.23-.09Z"/>
          <path class="cls-1" d="M86.86,92.88c-.08,.11-.19,.17-.34,.15,.11-.05,.22-.1,.34-.15Z"/>
          <path class="cls-1" d="M86.04,93.13c-.07,.1-.16,.15-.28,.1,.09-.03,.19-.07,.28-.1Z"/>
          <path class="cls-1" d="M83.74,93.66c-.08,.11-.19,.16-.32,.12,.11-.04,.22-.08,.32-.12Z"/>
          <path class="cls-1" d="M82.21,93.93c-.09,.12-.21,.16-.36,.12,.12-.04,.24-.08,.36-.12Z"/>
        </g>
      </g>
    </g>
  </g>
</svg>